<?xml version="1.0" standalone="no"?>
<!DOCTYPE svg PUBLIC "-//W3C//DTD SVG 20010904//EN"
 "http://www.w3.org/TR/2001/REC-SVG-20010904/DTD/svg10.dtd">
<svg version="1.0" xmlns="http://www.w3.org/2000/svg"
 width="600.000000pt" height="600.000000pt" viewBox="0 0 600.000000 600.000000"
 preserveAspectRatio="xMidYMid meet">
<metadata>
Created by potrace 1.14, written by Peter Selinger 2001-2017
</metadata>
<g transform="translate(0.000000,600.000000) scale(0.100000,-0.100000)"
fill="#000000" stroke="none">
<path d="M765 4451 c-33 -5 -89 -20 -124 -35 -36 -14 -69 -26 -73 -26 -17 0
-145 -80 -168 -105 -13 -14 -28 -25 -34 -26 -13 0 -141 -151 -164 -194 -10
-16 -20 -31 -24 -33 -5 -2 -8 -8 -8 -13 0 -6 -12 -36 -26 -67 -64 -136 -80
-387 -36 -547 21 -78 85 -216 107 -235 8 -7 15 -17 15 -22 0 -6 18 -30 40 -55
22 -25 40 -50 40 -54 0 -5 4 -9 10 -9 5 0 27 -17 49 -37 85 -83 243 -157 412
-193 95 -21 266 -8 381 28 53 17 115 42 137 56 22 14 44 26 49 26 4 0 23 13
42 30 19 16 38 29 42 30 3 0 19 13 35 28 15 16 33 31 38 33 6 2 17 14 25 25 8
12 34 46 57 77 162 213 207 498 118 763 -23 69 -68 164 -92 194 -6 8 -33 41
-59 73 -93 117 -260 226 -414 272 -64 18 -283 28 -375 16z m35 -430 c0 -25 -3
-28 -27 -25 -16 2 -38 -4 -51 -12 l-23 -15 4 -292 c2 -161 6 -301 9 -312 4
-11 7 -26 7 -33 1 -7 19 -32 42 -57 34 -36 50 -46 97 -56 69 -14 186 -5 222
18 14 9 34 25 45 37 44 46 48 76 52 391 l4 301 -23 12 c-13 7 -34 14 -48 15
-18 3 -26 11 -28 30 l-3 27 141 0 141 0 -3 -27 c-3 -24 -8 -28 -43 -31 -23 -2
-44 -11 -49 -20 -5 -8 -8 -134 -7 -278 2 -273 -5 -356 -40 -425 -51 -102 -227
-164 -382 -135 -145 28 -212 77 -241 175 -13 45 -16 110 -16 357 0 293 -1 303
-20 317 -11 8 -34 13 -51 11 -31 -4 -46 13 -35 41 4 12 32 15 166 15 l160 0 0
-29z"/>
<path d="M2170 4129 c0 -38 -6 -58 -25 -83 -14 -18 -25 -42 -25 -54 0 -11 -7
-27 -15 -36 -13 -12 -15 -60 -15 -300 l0 -286 1060 0 1060 0 0 290 0 290 -85
0 -85 0 0 -100 0 -100 -350 0 c-294 0 -350 2 -350 14 0 14 -13 20 -110 53 -59
20 -70 35 -71 107 l-2 61 -6 -55 c-9 -77 -22 -94 -83 -114 -29 -9 -64 -23 -78
-31 -44 -25 3 -17 84 14 l76 29 67 -25 c38 -14 76 -27 86 -30 15 -5 17 -23 17
-195 l0 -189 -47 3 c-46 3 -48 4 -51 36 -3 30 -1 32 30 32 27 1 30 2 15 11
-33 19 -57 2 -57 -42 0 -39 0 -39 -40 -39 -39 0 -40 1 -40 35 0 31 3 35 28 35
23 1 24 2 10 11 -30 17 -58 -6 -58 -46 0 -33 -2 -35 -34 -35 -40 0 -50 11 -42
46 5 18 13 24 34 24 23 1 25 2 9 11 -33 19 -57 2 -57 -42 0 -32 -3 -39 -19
-39 -17 0 -21 8 -24 53 l-3 52 -2 -52 -2 -53 -180 0 -180 0 0 35 c0 29 4 35
22 35 16 0 19 3 11 11 -22 22 -52 0 -55 -39 l-3 -37 -157 -3 -158 -3 0 176 0
175 349 0 350 0 4 -42 4 -43 1 50 2 50 -355 -3 -355 -2 0 100 c0 55 -4 100 -9
100 -5 0 -13 15 -17 33 -3 17 -17 45 -30 60 -19 22 -24 40 -24 83 0 30 -4 54
-10 54 -5 0 -10 -23 -10 -51z m0 -134 c0 -41 -2 -45 -24 -45 -23 0 -24 2 -16
31 8 28 27 59 36 59 2 0 4 -20 4 -45z m60 -27 c0 -11 -8 -18 -20 -18 -17 0
-20 7 -20 48 l0 47 20 -30 c11 -16 20 -38 20 -47z m20 -104 l0 -64 -75 0 -75
0 0 63 c0 35 2 66 4 68 2 2 36 3 75 1 l71 -4 0 -64z m1948 1 l2 -65 -75 0 -75
0 0 65 0 65 73 0 73 0 2 -65z m-1948 -275 l0 -201 -72 3 -73 3 -3 198 -2 197
75 0 75 0 0 -200z m1947 20 c1 -96 0 -185 -3 -197 -4 -21 -10 -23 -74 -23
l-70 0 0 200 0 201 73 -3 72 -3 2 -175z m-162 -45 l0 -170 -190 0 -190 0 0 30
c0 25 5 31 30 36 23 5 26 7 13 13 -29 13 -58 -11 -58 -49 l0 -35 -150 0 -150
0 0 175 0 175 348 -2 347 -3 0 -170z"/>
<path d="M2123 3905 c5 -13 108 -13 105 0 -2 5 -27 10 -56 10 -30 0 -51 -4
-49 -10z"/>
<path d="M2123 3863 c-3 -6 -3 -20 0 -30 4 -14 5 -13 6 5 0 12 7 22 15 22 8 0
17 -10 19 -22 l4 -23 2 23 c0 12 7 22 15 22 8 0 17 -10 19 -22 l4 -23 8 22 c4
13 11 20 16 17 5 -3 9 1 9 9 0 18 -110 19 -117 0z"/>
<path d="M4070 3903 c0 -9 17 -13 55 -13 37 0 55 4 55 13 0 8 -18 12 -55 12
-38 0 -55 -4 -55 -12z"/>
<path d="M4065 3872 c-3 -3 -5 -17 -4 -31 0 -26 0 -26 9 -3 11 26 37 29 43 5
4 -17 5 -17 6 0 1 21 21 23 21 2 0 -8 5 -15 10 -15 6 0 10 7 10 15 0 8 7 15
16 15 8 0 13 4 10 9 -6 9 -112 12 -121 3z"/>
<path d="M2151 3742 c-7 -13 -7 -22 1 -30 17 -17 33 -15 19 2 -14 16 2 32 20
20 7 -4 10 -1 7 7 -7 22 -36 22 -47 1z"/>
<path d="M2161 3643 c0 -17 3 -22 6 -13 4 8 13 20 22 27 14 11 13 12 -6 13
-19 0 -23 -5 -22 -27z"/>
<path d="M2157 3593 c-11 -10 -8 -53 3 -53 6 0 10 9 10 20 0 11 7 20 15 20 8
0 15 5 15 10 0 11 -33 14 -43 3z"/>
<path d="M2122 3518 c7 -20 92 -22 108 -3 11 13 5 15 -50 15 -45 0 -61 -3 -58
-12z"/>
<path d="M2162 3468 c-15 -15 -16 -58 -2 -58 6 0 10 11 10 25 0 16 6 25 16 25
8 0 12 5 9 10 -8 13 -18 13 -33 -2z"/>
<path d="M4111 3713 c1 -22 2 -23 6 -8 3 11 10 23 17 27 7 5 5 8 -6 8 -13 0
-18 -7 -17 -27z"/>
<path d="M4111 3643 c1 -17 3 -21 6 -10 2 9 9 17 14 17 5 0 9 5 9 10 0 6 -7
10 -15 10 -10 0 -15 -9 -14 -27z"/>
<path d="M4107 3593 c-4 -3 -7 -19 -7 -35 0 -19 -5 -28 -16 -28 -9 0 -14 -6
-11 -12 2 -8 22 -13 52 -13 30 0 50 5 53 13 2 8 -8 12 -33 12 -34 0 -36 2 -33
28 2 15 8 26 16 25 6 -2 12 2 12 7 0 11 -23 14 -33 3z"/>
<path d="M4113 3473 c-8 -3 -12 -20 -11 -41 l1 -37 4 33 c3 24 9 32 24 32 11
0 17 5 14 10 -7 11 -13 11 -32 3z"/>
<path d="M3355 3700 c4 -6 123 -10 325 -10 202 0 321 4 325 10 4 7 -107 10
-325 10 -218 0 -329 -3 -325 -10z"/>
<path d="M3361 3643 c1 -17 3 -21 6 -10 2 9 11 17 19 17 8 0 14 5 14 10 0 6
-9 10 -20 10 -15 0 -20 -6 -19 -27z"/>
<path d="M3437 3663 c-4 -3 -7 -15 -7 -27 0 -19 0 -19 20 2 11 12 20 24 20 27
0 7 -25 6 -33 -2z"/>
<path d="M3510 3643 c1 -27 1 -27 15 -9 19 25 19 36 0 36 -10 0 -15 -10 -15
-27z"/>
<path d="M3580 3643 l0 -27 20 22 c11 12 20 24 20 27 0 3 -9 5 -20 5 -15 0
-20 -7 -20 -27z"/>
<path d="M3657 3650 c-3 -11 -1 -23 4 -26 5 -3 9 2 9 10 0 9 7 16 15 16 8 0
15 5 15 10 0 19 -38 10 -43 -10z"/>
<path d="M3730 3643 l0 -27 20 22 c11 12 20 24 20 27 0 3 -9 5 -20 5 -15 0
-20 -7 -20 -27z"/>
<path d="M3810 3643 c1 -27 1 -27 15 -9 19 25 19 36 0 36 -10 0 -15 -10 -15
-27z"/>
<path d="M3880 3643 l0 -27 20 22 c11 12 20 24 20 27 0 3 -9 5 -20 5 -15 0
-20 -7 -20 -27z"/>
<path d="M3954 3655 c-11 -29 1 -34 25 -10 23 25 23 25 2 25 -12 0 -24 -7 -27
-15z"/>
<path d="M3358 3560 c-2 -23 -1 -45 2 -51 10 -15 642 -7 648 9 2 7 -6 12 -20
12 -21 0 -24 4 -20 29 3 23 8 28 25 23 17 -4 19 -2 11 8 -21 22 -49 7 -52 -28
-3 -28 -7 -32 -31 -32 -25 0 -27 3 -23 29 3 20 8 28 18 24 8 -3 14 0 14 7 0 6
-10 10 -22 8 -18 -2 -24 -11 -26 -35 -3 -29 -7 -33 -31 -33 -25 0 -27 3 -23
30 2 16 8 27 13 24 5 -3 9 0 9 5 0 6 -9 11 -20 11 -16 0 -20 -7 -20 -35 0 -33
-2 -35 -33 -35 -32 0 -33 2 -29 31 3 20 9 29 18 25 8 -3 14 -1 14 5 0 6 -10 9
-22 7 -18 -2 -24 -11 -26 -35 l-3 -33 -104 0 c-102 0 -103 0 -97 23 3 12 13
28 21 35 14 11 13 12 -9 10 -20 -2 -26 -9 -28 -35 -3 -30 -6 -33 -37 -33 -32
0 -33 1 -26 28 5 15 13 26 20 25 6 -2 11 2 11 8 0 6 -10 9 -22 7 -18 -2 -24
-11 -26 -35 -3 -29 -7 -33 -33 -33 -27 0 -30 3 -27 28 2 15 8 27 15 27 6 0 15
3 19 8 4 4 -4 7 -18 7 -23 0 -26 -5 -30 -40z"/>
<path d="M3587 3593 c-11 -10 -8 -53 3 -53 6 0 10 11 10 25 0 18 4 23 15 19 8
-4 15 -1 15 5 0 12 -32 15 -43 4z"/>
<path d="M3656 3578 c-8 -31 -7 -38 3 -38 5 0 11 10 13 23 2 15 9 21 21 19 9
-2 17 2 17 8 0 5 -11 10 -24 10 -16 0 -26 -7 -30 -22z"/>
<path d="M3373 3473 c-7 -2 -12 -19 -12 -36 2 -31 2 -31 6 -4 3 19 10 27 24
27 11 0 17 5 14 10 -7 11 -13 11 -32 3z"/>
<path d="M3443 3473 c-15 -6 -18 -63 -3 -63 6 0 10 11 10 25 0 16 6 25 16 25
8 0 12 5 9 10 -7 11 -13 11 -32 3z"/>
<path d="M3517 3473 c-11 -11 -8 -65 3 -58 6 3 10 15 10 26 0 11 7 19 18 19
14 0 15 2 2 10 -18 12 -24 12 -33 3z"/>
<path d="M3586 3464 c-9 -24 -7 -44 4 -44 6 0 10 9 10 20 0 11 7 20 16 20 8 0
12 5 9 10 -9 15 -32 12 -39 -6z"/>
<path d="M3743 3473 c-7 -2 -13 -18 -13 -34 0 -18 4 -28 10 -24 6 3 10 15 10
26 0 11 7 19 16 19 8 0 12 5 9 10 -7 11 -13 11 -32 3z"/>
<path d="M3817 3473 c-4 -3 -7 -20 -6 -37 l1 -31 11 28 c6 15 15 27 20 27 4 0
5 5 2 10 -7 12 -19 13 -28 3z"/>
<path d="M3887 3473 c-11 -11 -8 -65 3 -58 6 3 10 15 10 26 0 11 7 19 16 19 8
0 12 5 9 10 -7 11 -28 13 -38 3z"/>
<path d="M3963 3473 c-7 -2 -13 -18 -13 -34 0 -18 4 -28 10 -24 6 3 10 15 10
26 0 13 7 19 21 19 11 0 17 5 14 10 -7 11 -22 12 -42 3z"/>
<path d="M3118 3792 c-18 -7 -42 -15 -53 -16 -41 -7 -65 -19 -65 -33 0 -17 0
-16 90 16 58 21 76 20 45 -3 -11 -8 -16 -20 -12 -30 9 -24 26 -20 20 5 -5 18
-3 20 16 14 22 -7 30 10 9 18 -8 3 -6 6 4 6 10 1 40 -8 68 -19 60 -24 60 -24
60 -6 0 9 -29 23 -75 38 -68 22 -78 23 -107 10z"/>
<path d="M3053 3725 c-17 -13 -17 -15 -2 -30 11 -12 19 -13 23 -6 4 6 2 11 -4
11 -6 0 -9 4 -5 10 3 5 12 7 20 3 8 -3 15 -1 15 5 0 17 -27 21 -47 7z"/>
<path d="M3204 3715 c-7 -18 4 -37 17 -29 5 3 7 10 4 15 -4 5 1 9 9 9 9 0 16
5 16 10 0 16 -40 12 -46 -5z"/>
<path d="M2300 3700 c0 -6 113 -10 319 -10 203 0 322 4 326 10 4 7 -105 10
-319 10 -211 0 -326 -4 -326 -10z"/>
<path d="M2301 3643 c0 -27 0 -28 10 -5 5 13 13 20 19 17 5 -3 10 -1 10 4 0 6
-9 11 -20 11 -15 0 -20 -6 -19 -27z"/>
<path d="M2381 3643 c0 -17 3 -22 6 -13 4 8 13 20 22 27 14 11 13 12 -6 13
-19 0 -23 -5 -22 -27z"/>
<path d="M2450 3643 l0 -27 20 22 c11 12 20 24 20 27 0 3 -9 5 -20 5 -15 0
-20 -7 -20 -27z"/>
<path d="M2527 3663 c-11 -10 -8 -43 3 -43 6 0 10 7 10 15 0 8 5 15 10 15 6 0
10 5 10 10 0 11 -23 14 -33 3z"/>
<path d="M2601 3643 c1 -17 3 -21 6 -10 2 9 11 17 19 17 8 0 14 5 14 10 0 6
-9 10 -20 10 -15 0 -20 -6 -19 -27z"/>
<path d="M2670 3643 l0 -27 20 22 c11 12 20 24 20 27 0 3 -9 5 -20 5 -15 0
-20 -7 -20 -27z"/>
<path d="M2751 3643 c1 -17 3 -21 6 -10 2 9 11 17 19 17 8 0 14 5 14 10 0 6
-9 10 -20 10 -15 0 -20 -6 -19 -27z"/>
<path d="M2820 3643 l0 -27 20 22 c11 12 20 24 20 27 0 3 -9 5 -20 5 -15 0
-20 -7 -20 -27z"/>
<path d="M2900 3643 c1 -27 1 -27 15 -9 19 25 19 36 0 36 -10 0 -15 -10 -15
-27z"/>
<path d="M3021 3643 c1 -17 3 -21 6 -10 2 9 9 17 14 17 5 0 9 5 9 10 0 6 -7
10 -15 10 -10 0 -15 -9 -14 -27z"/>
<path d="M3081 3643 c1 -17 3 -21 6 -10 2 9 9 17 14 17 5 0 9 5 9 10 0 6 -7
10 -15 10 -10 0 -15 -9 -14 -27z"/>
<path d="M3137 3663 c-4 -3 -7 -15 -7 -27 0 -19 0 -19 20 2 11 12 20 24 20 27
0 7 -25 6 -33 -2z"/>
<path d="M3191 3643 c0 -17 3 -22 6 -13 4 8 13 20 22 27 14 11 13 12 -6 13
-19 0 -23 -5 -22 -27z"/>
<path d="M3247 3663 c-11 -10 -8 -43 3 -43 6 0 10 5 10 11 0 7 8 18 18 25 16
12 16 13 -4 14 -11 0 -24 -3 -27 -7z"/>
<path d="M2971 3634 c0 -11 3 -14 6 -6 3 7 2 16 -1 19 -3 4 -6 -2 -5 -13z"/>
<path d="M2302 3553 l3 -48 319 0 c247 0 320 3 324 13 2 7 -5 12 -16 12 -16 0
-19 5 -15 23 3 12 13 28 22 35 14 12 13 13 -9 10 -20 -2 -26 -9 -28 -35 -3
-30 -6 -33 -36 -33 -30 0 -33 2 -28 25 2 14 11 25 18 25 8 0 14 5 14 11 0 6
-10 9 -22 7 -18 -2 -24 -11 -26 -35 -3 -29 -7 -33 -33 -33 -27 0 -30 3 -27 28
2 15 8 27 15 27 6 0 15 3 19 8 4 4 -5 7 -19 7 -24 0 -27 -4 -27 -35 0 -33 -2
-35 -33 -35 -32 0 -33 2 -29 31 3 20 9 28 18 25 7 -3 16 0 20 5 4 7 -5 9 -22
7 -25 -2 -29 -8 -32 -35 -3 -29 -7 -33 -33 -33 -27 0 -30 3 -27 28 2 19 8 27
21 26 9 -1 17 2 17 7 0 5 -11 9 -25 9 -22 0 -25 -4 -25 -35 0 -32 -2 -35 -30
-35 -25 0 -30 4 -30 25 0 16 6 25 15 25 8 0 15 5 15 11 0 6 -10 9 -22 7 -18
-2 -24 -11 -26 -35 -3 -29 -7 -33 -31 -33 -25 0 -27 3 -23 30 2 16 8 28 12 25
5 -3 11 -1 15 5 4 6 -5 10 -19 10 -23 0 -26 -4 -26 -35 0 -32 -2 -35 -31 -35
-27 0 -30 3 -27 28 2 15 8 27 15 27 6 0 15 3 19 8 4 4 -5 7 -19 7 -24 0 -27
-4 -27 -35 0 -33 -2 -35 -36 -35 -33 0 -35 2 -32 28 2 19 8 26 21 24 9 -2 17
2 17 8 0 5 -11 10 -26 10 -24 0 -25 -2 -22 -47z"/>
<path d="M3017 3593 c-3 -5 -7 -26 -8 -48 l-4 -40 144 0 c107 0 145 3 149 13
2 7 -6 12 -22 12 -21 0 -26 5 -26 25 0 15 6 25 14 25 8 0 18 5 21 10 4 6 -5
10 -19 10 -23 0 -26 -4 -26 -35 l0 -35 -50 0 c-47 0 -50 2 -50 25 0 16 6 25
15 25 8 0 15 5 15 10 0 6 -9 10 -20 10 -16 0 -20 -7 -20 -35 0 -31 -3 -35 -25
-35 -20 0 -25 5 -25 25 0 16 6 25 15 25 8 0 15 5 15 11 0 6 -8 9 -17 7 -12 -2
-19 -14 -21 -36 -3 -25 -8 -32 -25 -32 -17 0 -22 6 -22 25 0 17 6 25 18 25 9
0 17 5 17 10 0 12 -37 14 -43 3z"/>
<path d="M3187 3593 c-11 -10 -8 -53 3 -53 6 0 10 9 10 20 0 11 7 20 15 20 8
0 15 5 15 10 0 11 -33 14 -43 3z"/>
<path d="M2972 3570 c0 -14 2 -19 5 -12 2 6 2 18 0 25 -3 6 -5 1 -5 -13z"/>
<path d="M2972 3520 c0 -14 2 -19 5 -12 2 6 2 18 0 25 -3 6 -5 1 -5 -13z"/>
<path d="M2313 3473 c-7 -2 -12 -19 -12 -36 2 -31 2 -31 6 -4 3 19 10 27 24
27 11 0 17 5 14 10 -7 11 -13 11 -32 3z"/>
<path d="M2384 3466 c-3 -8 -4 -25 -1 -38 4 -21 4 -20 6 5 1 20 6 27 22 27 11
0 17 5 14 10 -9 15 -35 12 -41 -4z"/>
<path d="M2463 3473 c-7 -2 -13 -18 -13 -34 0 -18 4 -28 10 -24 6 3 10 15 10
26 0 11 7 19 16 19 8 0 12 5 9 10 -7 11 -13 11 -32 3z"/>
<path d="M2537 3469 c-18 -11 -24 -59 -7 -59 6 0 10 11 10 24 0 15 7 26 18 28
9 2 13 6 7 10 -6 3 -18 2 -28 -3z"/>
<path d="M2677 3473 c-11 -11 -8 -65 3 -58 6 3 10 15 10 26 0 13 7 19 23 19
18 0 19 2 7 10 -18 11 -34 13 -43 3z"/>
<path d="M2757 3473 c-4 -3 -7 -20 -7 -37 0 -22 3 -27 9 -17 5 8 7 20 4 28 -3
8 3 13 17 13 11 0 18 5 15 10 -7 11 -28 13 -38 3z"/>
<path d="M2833 3473 c-7 -2 -13 -18 -13 -34 0 -18 4 -28 10 -24 6 3 10 15 10
26 0 11 7 19 16 19 8 0 12 5 9 10 -7 11 -13 11 -32 3z"/>
<path d="M2907 3473 c-11 -11 -8 -65 3 -58 6 3 10 15 10 26 0 11 7 19 18 19
14 0 15 2 2 10 -18 12 -24 12 -33 3z"/>
<path d="M2090 2970 c0 -7 650 -10 1930 -10 1280 0 1930 3 1930 10 0 7 -650
10 -1930 10 -1280 0 -1930 -3 -1930 -10z"/>
<path d="M775 2614 c-152 -25 -340 -125 -450 -242 -68 -71 -79 -85 -112 -139
-80 -130 -126 -292 -125 -444 1 -109 28 -249 62 -323 17 -35 30 -67 30 -70 0
-18 94 -142 158 -210 39 -40 173 -132 232 -159 278 -125 596 -93 843 84 93 66
196 183 242 272 12 23 26 51 32 62 37 69 73 235 73 337 0 123 -47 314 -98 398
-107 177 -217 283 -366 355 -135 65 -186 77 -346 80 -80 2 -158 1 -175 -1z
m279 -374 c154 -25 230 -164 164 -298 -25 -49 -56 -73 -131 -100 l-47 -17 74
-11 c95 -15 136 -44 166 -120 45 -109 10 -224 -87 -292 -18 -13 -33 -20 -33
-16 0 3 -6 2 -13 -4 -34 -29 -144 -42 -349 -42 l-208 0 0 30 c0 27 3 30 31 30
17 0 39 5 50 10 18 10 19 25 19 390 l0 380 -25 5 c-14 3 -36 7 -50 10 -19 4
-25 12 -25 30 l0 25 203 0 c111 0 229 -4 261 -10z"/>
<path d="M810 2015 l0 -177 83 4 c143 7 201 50 214 157 7 62 -9 109 -51 150
-33 32 -37 33 -140 38 l-106 6 0 -178z"/>
<path d="M823 1773 c-10 -3 -13 -50 -13 -184 l0 -179 97 0 c159 0 230 37 253
134 25 107 -18 196 -108 224 -40 12 -204 16 -229 5z"/>
<path d="M4467 2549 c-26 -15 -22 -57 8 -71 21 -9 28 -8 45 7 11 10 20 23 20
29 -1 33 -42 52 -73 35z"/>
<path d="M3020 2521 c0 -36 22 -55 55 -47 21 5 25 12 25 41 0 34 -1 35 -40 35
-37 0 -40 -2 -40 -29z"/>
<path d="M2090 2515 c0 -20 5 -25 24 -25 l24 0 4 -177 c4 -223 15 -245 128
-264 79 -13 145 0 187 36 l38 33 5 183 c5 179 6 184 27 187 23 3 39 30 25 44
-5 5 -40 8 -78 6 -62 -3 -69 -5 -72 -25 -3 -17 2 -22 25 -25 l28 -3 3 -141 c3
-170 -7 -211 -58 -237 -25 -13 -47 -17 -79 -12 -98 12 -113 47 -109 250 l3
140 28 3 c21 3 27 9 27 28 0 24 -1 24 -90 24 -89 0 -90 0 -90 -25z"/>
<path d="M4664 2435 c-9 -20 -30 -43 -46 -51 -31 -16 -29 -34 3 -34 18 0 19
-8 19 -129 0 -165 5 -173 100 -169 56 3 65 6 68 23 2 17 -3 20 -40 20 -40 0
-44 2 -55 35 -6 19 -12 77 -12 128 l-1 92 55 0 c41 0 55 4 55 14 0 11 -15 16
-52 18 l-53 3 -3 43 c-4 51 -16 53 -38 7z"/>
<path d="M5251 2441 c-12 -16 -21 -34 -21 -40 0 -6 -11 -13 -25 -17 -14 -3
-25 -12 -25 -20 0 -8 10 -14 25 -14 l25 0 0 -138 c0 -94 4 -142 12 -150 12
-12 114 -17 142 -6 9 3 16 14 16 23 0 13 -8 16 -38 13 -64 -6 -72 10 -72 144
l0 114 55 0 c41 0 55 4 55 14 0 11 -15 16 -52 18 l-53 3 -3 43 c-4 49 -13 53
-41 13z"/>
<path d="M2601 2386 c-43 -15 -52 -36 -17 -36 l27 0 -3 -132 c-3 -129 -4 -133
-25 -136 -13 -2 -23 -10 -23 -18 0 -12 15 -14 82 -12 51 2 83 7 85 15 2 6 -6
13 -19 15 -22 3 -23 6 -26 126 l-3 122 26 10 c46 18 82 12 104 -16 18 -23 21
-41 21 -125 0 -94 -1 -99 -25 -115 -38 -25 -21 -34 61 -34 57 0 74 3 74 14 0
8 -10 16 -22 18 -22 3 -23 7 -28 135 -5 122 -7 133 -29 157 -31 33 -100 36
-148 7 -33 -20 -45 -19 -36 5 6 18 -28 18 -76 0z"/>
<path d="M3011 2386 c-44 -16 -50 -34 -14 -38 l28 -3 3 -119 c3 -124 -3 -146
-40 -146 -11 0 -18 -5 -16 -12 3 -9 32 -14 86 -16 67 -2 82 0 82 12 0 8 -10
16 -22 18 -23 3 -23 6 -26 161 -2 155 -3 157 -25 156 -12 0 -37 -6 -56 -13z"/>
<path d="M3140 2381 c0 -12 8 -21 21 -23 23 -3 33 -25 96 -200 33 -94 41 -108
61 -108 13 0 25 8 29 18 3 9 18 46 33 82 16 36 41 98 57 137 23 61 32 73 51
73 17 0 23 5 20 18 -2 13 -15 18 -57 20 -29 2 -60 1 -67 -2 -19 -7 -6 -36 17
-36 17 0 17 -2 0 -52 -10 -29 -28 -73 -39 -98 -11 -25 -22 -54 -24 -65 -2 -13
-12 4 -26 45 -13 36 -28 79 -33 95 -23 64 -23 75 1 75 15 0 20 5 18 18 -3 14
-16 17 -81 20 -71 3 -77 1 -77 -17z"/>
<path d="M3568 2367 c-36 -27 -45 -42 -57 -89 -21 -80 -2 -157 48 -199 32 -26
43 -29 109 -29 79 0 122 18 122 51 0 20 -24 26 -35 10 -12 -20 -91 -24 -124
-6 -34 17 -61 66 -61 110 l0 25 110 0 110 0 0 40 c0 80 -42 120 -128 120 -42
0 -58 -6 -94 -33z m140 -24 c5 -10 12 -30 16 -45 l6 -28 -80 0 -80 0 11 27
c17 46 39 63 80 63 26 0 41 -5 47 -17z"/>
<path d="M3880 2385 c-42 -15 -51 -35 -16 -35 l26 0 0 -135 0 -135 -25 0 c-16
0 -25 -6 -25 -15 0 -13 14 -15 87 -13 58 2 88 7 91 16 2 7 -6 12 -20 12 -41 0
-48 18 -48 116 l0 93 37 30 c23 19 44 29 53 25 46 -19 50 -17 50 20 0 34 -2
36 -32 36 -22 -1 -45 -11 -68 -31 l-35 -30 -3 31 c-4 33 -15 36 -72 15z"/>
<path d="M4173 2380 c-33 -20 -51 -69 -39 -107 6 -20 48 -51 119 -88 20 -11
40 -27 43 -37 13 -42 -37 -77 -90 -64 -17 4 -26 15 -31 36 -5 21 -13 30 -26
30 -16 0 -19 -7 -19 -50 l0 -50 85 0 c77 0 88 2 110 24 28 28 40 66 31 101 -7
28 -43 65 -63 65 -7 0 -31 11 -53 25 -32 20 -40 31 -40 55 0 35 24 49 70 42
22 -3 30 -11 35 -33 5 -20 13 -29 26 -29 16 0 19 7 19 44 0 37 -4 45 -22 50
-48 12 -123 6 -155 -14z"/>
<path d="M4441 2386 c-44 -16 -50 -34 -14 -38 l28 -3 0 -125 0 -125 -28 -13
c-44 -21 -22 -32 64 -32 61 0 79 3 79 14 0 8 -11 17 -25 20 l-25 6 0 155 c0
154 0 155 -22 154 -13 0 -38 -6 -57 -13z"/>
<path d="M4898 2374 c-27 -17 -38 -31 -38 -49 0 -22 4 -25 40 -25 38 0 40 2
40 30 0 29 1 30 50 30 44 0 50 -3 56 -24 14 -56 4 -69 -70 -88 -87 -22 -111
-38 -126 -83 -10 -30 -9 -41 8 -73 18 -35 21 -37 76 -40 41 -2 65 2 83 14 24
15 27 15 35 0 12 -22 118 -23 118 -2 0 8 -10 16 -22 18 -22 3 -23 8 -29 137
-6 130 -7 135 -33 158 -39 33 -136 32 -188 -3z m152 -195 c0 -59 -1 -60 -35
-75 -49 -20 -72 -18 -91 11 -25 38 -6 70 58 100 29 14 56 25 61 25 4 0 7 -27
7 -61z"/>
<path d="M2330 1857 c-46 -16 -53 -47 -11 -47 l31 0 0 -60 0 -60 -69 0 c-62 0
-72 -3 -112 -34 -50 -38 -69 -85 -69 -163 2 -122 104 -194 203 -143 45 24 47
24 47 5 0 -11 12 -15 50 -15 37 0 50 4 50 14 0 8 -9 18 -20 21 -19 6 -20 15
-20 251 l0 244 -22 -1 c-13 0 -39 -5 -58 -12z m13 -214 c4 -2 7 -56 7 -118 0
-132 -4 -138 -88 -133 -40 3 -49 8 -69 37 -47 70 -22 187 46 215 32 13 80 13
104 -1z"/>
<path d="M4713 1858 c-41 -13 -47 -48 -8 -48 l25 0 0 -214 0 -214 -25 -6 c-14
-4 -25 -13 -25 -21 0 -12 17 -15 85 -15 66 0 85 3 85 14 0 8 -13 19 -30 25
l-30 10 0 240 0 241 -22 -1 c-13 -1 -38 -6 -55 -11z"/>
<path d="M2977 1813 c-14 -13 -6 -22 21 -25 l27 -3 3 -202 2 -202 -27 -3 c-17
-2 -28 -9 -28 -18 0 -13 22 -15 140 -15 125 0 144 3 180 23 53 29 75 91 55
153 -13 40 -49 69 -85 69 -8 0 -15 5 -15 10 0 6 6 10 14 10 8 0 26 14 41 32
23 27 26 39 22 76 -6 53 -30 80 -83 92 -45 11 -257 13 -267 3z m218 -37 c44
-19 65 -60 53 -103 -10 -40 -51 -63 -108 -63 l-40 0 0 90 0 90 30 0 c17 0 46
-6 65 -14z m65 -236 c28 -28 27 -96 -2 -127 -18 -20 -31 -23 -90 -23 l-68 0 0
85 0 85 70 0 c57 0 74 -4 90 -20z"/>
<path d="M2532 1646 l-47 -45 0 -78 c0 -85 17 -139 46 -148 10 -4 19 -10 19
-15 0 -14 53 -26 102 -24 60 3 128 37 128 64 0 24 -8 25 -36 5 -12 -8 -42 -16
-68 -18 -78 -6 -126 37 -126 114 l0 29 115 0 c85 0 115 3 115 13 0 31 -23 89
-46 117 -24 28 -31 30 -90 30 -63 0 -67 -1 -112 -44z m132 3 c21 -10 46 -53
46 -80 0 -13 -148 -11 -155 1 -11 18 6 51 38 71 38 22 39 22 71 8z"/>
<path d="M3474 1680 c-26 -10 -54 -48 -54 -72 0 -19 40 -34 65 -24 9 3 15 18
15 35 0 22 5 30 24 35 50 12 86 -16 86 -68 0 -20 -10 -26 -77 -46 -86 -25
-133 -62 -133 -104 0 -89 89 -128 176 -77 33 20 33 20 39 0 5 -15 16 -19 55
-19 58 0 75 23 29 39 l-29 10 0 121 c0 116 -8 155 -34 172 -15 10 -136 9 -162
-2z m136 -210 c0 -55 -2 -61 -28 -74 -31 -16 -92 -12 -104 7 -30 48 12 90 130
126 1 1 2 -26 2 -59z"/>
<path d="M3788 1678 c-33 -12 -39 -48 -8 -48 19 0 20 -7 20 -124 0 -115 -1
-124 -20 -129 -11 -3 -20 -12 -20 -21 0 -13 14 -16 85 -16 67 0 85 3 85 14 0
8 -13 17 -30 21 l-30 7 0 102 c0 96 2 104 25 126 20 19 31 22 65 16 l40 -6 0
35 c0 33 -2 35 -34 35 -21 0 -42 -9 -60 -25 -15 -14 -29 -25 -32 -25 -2 0 -4
11 -4 25 0 21 -5 25 -27 24 -16 0 -40 -5 -55 -11z"/>
<path d="M4109 1675 c-70 -38 -106 -148 -75 -230 17 -42 74 -104 99 -106 7 -1
27 -3 46 -5 47 -6 121 29 121 56 0 17 -3 19 -19 10 -11 -5 -45 -10 -76 -10
-55 0 -56 0 -85 47 -33 52 -38 95 -16 147 18 43 63 78 95 74 21 -2 27 -10 31
-38 8 -56 70 -50 70 6 0 44 -33 64 -102 64 -35 -1 -75 -7 -89 -15z"/>
<path d="M4404 1658 c-46 -41 -64 -83 -64 -150 1 -137 120 -210 254 -154 28
12 36 21 36 41 0 25 -1 25 -22 11 -15 -10 -45 -16 -85 -16 -61 0 -63 1 -87 38
-14 20 -26 51 -28 67 l-3 30 113 3 112 3 0 48 c0 43 -4 52 -35 80 -31 27 -43
31 -95 31 -53 0 -63 -4 -96 -32z m126 -13 c25 -13 30 -22 30 -50 l0 -35 -75 0
c-41 0 -75 3 -75 6 0 3 7 21 16 39 13 28 36 45 72 54 2 1 16 -6 32 -14z"/>
<path d="M4934 1658 c-45 -40 -64 -82 -64 -143 0 -112 75 -185 183 -178 56 3
101 33 127 83 31 61 34 100 10 163 -30 79 -71 107 -157 107 -56 0 -66 -3 -99
-32z m153 -20 c25 -20 46 -97 40 -146 -8 -70 -25 -100 -64 -113 -89 -29 -153
96 -107 210 24 60 88 84 131 49z"/>
<path d="M5263 1678 c-41 -13 -47 -48 -8 -48 l25 0 0 -124 c0 -124 0 -124 -25
-130 -14 -4 -25 -13 -25 -21 0 -12 17 -15 85 -15 62 0 85 3 85 13 0 7 -10 17
-22 22 -22 10 -23 15 -23 130 l0 120 42 9 c34 7 48 5 68 -8 24 -16 25 -20 25
-131 0 -105 -2 -114 -20 -120 -11 -3 -20 -13 -20 -21 0 -12 14 -14 77 -12 82
3 105 18 54 36 l-29 10 -4 137 c-3 122 -5 138 -22 151 -26 18 -103 18 -140 -1
-35 -18 -36 -18 -36 0 0 17 -38 19 -87 3z"/>
<path d="M5688 1674 c-52 -27 -50 -94 2 -94 27 0 30 3 30 34 0 29 4 34 30 39
52 11 81 -11 87 -63 3 -23 -3 -27 -87 -54 -98 -31 -120 -52 -120 -114 0 -33
39 -81 67 -83 45 -3 77 4 109 23 l34 20 0 -21 c0 -19 6 -21 55 -21 42 0 55 4
55 15 0 8 -11 17 -25 21 l-25 6 0 130 c0 124 -1 130 -25 153 -21 22 -33 25
-92 25 -40 -1 -79 -7 -95 -16z m152 -205 c0 -58 -1 -60 -32 -73 -48 -20 -97
-10 -105 22 -9 38 17 72 73 92 27 10 52 19 57 19 4 1 7 -26 7 -60z"/>
</g>
</svg>
